<svg width="532" height="356" viewBox="0 0 532 356" fill="none" xmlns="http://www.w3.org/2000/svg">
<path fill-rule="evenodd" clip-rule="evenodd" d="M3.36223 0.118864C2.31323 0.319864 1.12423 0.994864 0.720228 1.61886C-0.283772 3.16986 -0.216779 261.434 0.788221 263.018C1.41322 264.002 8.54222 264.224 33.0232 264.018L64.4552 263.753L64.7172 227.503C64.8622 207.566 65.3602 191.253 65.8252 191.253C66.7152 191.253 77.1592 204.358 103.267 238.235C111.964 249.52 120.136 259.99 121.427 261.503L123.775 264.253H160.896C192.663 264.253 198.099 264.041 198.583 262.78C198.932 261.87 194.452 255.29 186.838 245.53C117.01 156.034 109.72 146.459 110.232 144.921C110.671 143.603 157.989 93.9649 162.136 90.4729C164.021 88.8859 166.94 87.9489 171.969 87.3169C179.86 86.3269 180.473 86.0439 179.61 83.7959C179.093 82.4499 174.931 82.2529 146.955 82.2529C118.479 82.2529 114.824 82.4319 114.278 83.8539C113.395 86.1549 115.709 87.2199 121.628 87.2379C125.713 87.2499 127.445 87.7949 129.859 89.8259C135.283 94.3899 136.373 104.346 132.373 112.793C131.342 114.971 123.513 123.956 114.977 132.76C106.44 141.563 96.1042 152.363 92.0092 156.76C87.9132 161.156 80.2632 169.185 75.0092 174.602L65.4552 184.451L64.9552 92.6019L64.4552 0.752866L34.8622 0.252866C18.5862 -0.0221336 4.41123 -0.0821363 3.36223 0.118864ZM467.816 25.4779C462.691 36.3199 454.985 47.0829 445.368 56.8329C433.973 68.3849 421.55 75.8479 405.705 80.6599C400.893 82.1219 396.955 83.6629 396.955 84.0849C396.955 86.1119 399.869 87.2529 405.048 87.2529C409.317 87.2529 410.893 87.6489 411.348 88.8349C411.682 89.7049 411.962 119.067 411.97 154.085C411.986 224.327 412.035 224.967 418.23 236.647C422.774 245.214 431.164 253.267 440.097 257.635C452.124 263.515 458.354 264.757 475.455 264.683C489.07 264.623 491.182 264.367 498.329 261.905C508.414 258.43 513.946 255.154 520.405 248.831C526.732 242.636 530.981 234.053 531.712 225.993C532.238 220.199 532.199 220.082 529.853 220.414C527.748 220.712 527.371 221.443 526.752 226.426C525.822 233.9 523.96 238.135 519.366 243.22C513.666 249.529 506.877 252.675 498.955 252.677C489.484 252.68 482.67 248.671 478.669 240.74C475.14 233.745 474.863 227.109 475.162 156.753L475.455 87.7529L502.272 87.4869L529.09 87.2199L528.772 84.9869L528.455 82.7529L501.705 82.4869L474.955 82.2199V49.2369C474.955 21.7579 474.723 16.2529 473.566 16.2529C472.797 16.2529 470.233 20.3659 467.816 25.4779ZM191.889 83.4709C190.826 83.8659 189.955 84.8989 189.955 85.7669C189.955 86.6359 198.669 104.313 209.319 125.049C219.97 145.786 242.508 190.203 259.403 223.753C276.299 257.303 290.756 285.409 291.531 286.21C292.422 287.131 293.279 287.315 293.86 286.71C294.929 285.597 325.381 221.795 326.359 218.62C326.848 217.032 318.57 199.574 293.982 150.337C275.813 113.955 260.387 83.9879 259.701 83.7439C257.541 82.9739 193.918 82.7179 191.889 83.4709ZM330.652 86.8889C323.361 94.1799 320.437 108.334 323.437 121.818C324.899 128.389 335.565 159.504 341.754 175.253C344.889 183.23 345.55 182.49 356.056 159.253C358.916 152.928 367.73 134.059 375.644 117.322C383.557 100.585 389.896 86.1849 389.73 85.3219C389.466 83.9499 385.974 83.7199 361.874 83.4879L334.319 83.2219L330.652 86.8889ZM222.579 287.193C215.042 290.226 210.278 294.018 206.053 300.344C188.231 327.033 213.073 362.743 243.958 354.831C256.035 351.737 264.624 344.05 269.017 332.406C270.738 327.842 271.067 325.212 270.723 318.753C270.02 305.569 263.571 295.536 251.723 289.197C246.164 286.223 244.437 285.809 236.455 285.537C229.321 285.295 226.444 285.638 222.579 287.193Z" fill="black"/>
<path d="M292.059 283.807L282.051 302.803L265.455 333.253" stroke="black" stroke-width="6" stroke-linecap="round"/>
</svg>
