<svg width="194" height="258" viewBox="0 0 194 258" fill="none" xmlns="http://www.w3.org/2000/svg">
<path fill-rule="evenodd" clip-rule="evenodd" d="M3.27602 0.115816C2.25391 0.311662 1.0954 0.969354 0.701761 1.57735C-0.276496 3.08858 -0.21122 254.73 0.76801 256.274C1.37698 257.233 8.32319 257.449 32.1765 257.248L62.8025 256.99L63.0578 221.669C63.1991 202.244 63.6843 186.349 64.1374 186.349C65.0046 186.349 75.1808 199.118 100.619 232.126C109.093 243.122 117.056 253.323 118.314 254.798L120.602 257.477H156.771C187.723 257.477 193.02 257.271 193.491 256.042C193.831 255.155 189.466 248.744 182.048 239.234C114.01 152.033 106.907 142.704 107.406 141.205C107.834 139.921 153.938 91.5555 157.979 88.153C159.816 86.6067 162.66 85.6938 167.56 85.078C175.248 84.1133 175.846 83.8376 175.005 81.6473C174.501 80.3358 170.446 80.1438 143.187 80.1438C115.441 80.1438 111.88 80.3182 111.348 81.7038C110.488 83.9458 112.742 84.9834 118.51 85.001C122.49 85.0127 124.177 85.5437 126.529 87.5226C131.814 91.9696 132.876 101.67 128.979 109.901C127.974 112.023 120.346 120.777 112.029 129.356C103.711 137.933 93.64 148.456 89.65 152.74C85.659 157.024 78.2052 164.847 73.0859 170.125L63.7769 179.721L63.2897 90.2275L62.8025 0.733562L33.9683 0.246383C18.1097 -0.0215661 4.29812 -0.0800303 3.27602 0.115816Z" fill="black"/>
</svg>
